<?xml version="1.0"?>
<svg xmlns="http://www.w3.org/2000/svg" id="Capa_1" enable-background="new 0 0 512 512" height="512px" viewBox="0 0 512 512" width="512px" class=""><g><g><g><g><path d="m435.375 258.925v-238.925h18.146c5.523 0 10-4.477 10-10s-4.477-10-10-10h-28.146c-5.523 0-10 4.477-10 10v30.182h-3.443c-25.393 0-46.052 20.659-46.052 46.052v57.58h-53.464c-5.523 0-10 4.477-10 10s4.477 10 10 10h53.464v27.74h-221.493v-16.873c0-5.992 4.875-10.867 10.867-10.867h66.749c5.523 0 10-4.477 10-10s-4.477-10-10-10h-66.749c-17.02 0-30.867 13.847-30.867 30.867v26.873c0 5.523 4.477 10 10 10h49.106v47.941h-38.426c-27.675 0-50.191 22.516-50.191 50.191v92.698c-23.283 4.285-41.501 23.254-44.689 46.93h-21.12c-5.523 0-10 4.477-10 10s4.477 10 10 10h21.554c.171 0 .34-.004.509-.013 5.696 24.44 27.632 42.699 53.746 42.699 30.429 0 55.184-24.79 55.184-55.262 0-27.053-19.513-49.628-45.184-54.353v-31.152h98.613c-.001.273-.003.547-.003.821.001 77.166 62.68 139.946 139.724 139.946 77.043 0 139.723-62.78 139.723-139.946 0-46.433-22.695-87.657-57.558-113.129zm-49.495-172.691c0-14.365 11.686-26.052 26.052-26.052h3.443v186.556c-9.294-4.644-19.173-8.28-29.495-10.766zm-182.387 125.32h162.387v21.125c-4.174-.378-8.4-.571-12.671-.571-31.065 0-59.794 10.207-83.021 27.448-.362-.04-.73-.061-1.103-.061h-65.592zm-63.433 245.184c0 19.444-15.784 35.262-35.184 35.262-19.401 0-35.185-15.818-35.185-35.262s15.784-35.262 35.185-35.262c19.4 0 35.184 15.818 35.184 35.262zm-25.184-105.505v-41.546c0-16.647 13.543-30.191 30.191-30.191h103.429c-17.432 19.761-29.389 44.477-33.466 71.738h-100.154zm238.334 140.767c-66.015 0-119.723-53.808-119.723-119.946s53.708-119.946 119.723-119.946c66.016 0 119.723 53.808 119.723 119.946s-53.708 119.946-119.723 119.946z" data-original="#000000" class="active-path" data-old_color="#000000" fill="#353E80"/><path d="m353.21 293.534c-43.231 0-78.402 35.224-78.402 78.52s35.171 78.52 78.402 78.52 78.403-35.224 78.403-78.52c-.001-43.296-35.172-78.52-78.403-78.52zm0 137.04c-32.203 0-58.402-26.252-58.402-58.52s26.199-58.52 58.402-58.52c32.204 0 58.403 26.252 58.403 58.52-.001 32.268-26.2 58.52-58.403 58.52z" data-original="#000000" class="active-path" data-old_color="#000000" fill="#353E80"/><path d="m258.16 157.64c1.564 3.753 5.329 6.227 9.395 6.168 4.174-.061 7.964-2.83 9.306-6.782 1.322-3.893.062-8.339-3.126-10.944-3.377-2.759-8.263-2.988-11.894-.582-3.939 2.609-5.465 7.79-3.681 12.14z" data-original="#000000" class="active-path" data-old_color="#000000" fill="#353E80"/></g></g></g></g> </svg>
